<svg width="52" height="52" viewBox="0 0 52 52" fill="none" xmlns="http://www.w3.org/2000/svg">
<rect width="52" height="52" rx="10" fill="#0CA68A"/>
<path d="M25.5 16C28.0854 16 30.5366 16.897 32.6707 18.5576C34.8049 20.2061 36.622 22.6182 37.9268 25.6364C38.0244 25.8667 38.0244 26.1333 37.9268 26.3515C35.3171 32.3879 30.6707 36 25.5 36H25.4878C20.3293 36 15.6829 32.3879 13.0732 26.3515C12.9756 26.1333 12.9756 25.8667 13.0732 25.6364C15.6829 19.6 20.3293 16 25.4878 16H25.5ZM25.5 21.1515C22.8049 21.1515 20.622 23.3212 20.622 26C20.622 28.6667 22.8049 30.8364 25.5 30.8364C28.1829 30.8364 30.3659 28.6667 30.3659 26C30.3659 23.3212 28.1829 21.1515 25.5 21.1515ZM25.5015 22.967C27.1722 22.967 28.538 24.3246 28.538 25.9973C28.538 27.6579 27.1722 29.0155 25.5015 29.0155C23.8185 29.0155 22.4527 27.6579 22.4527 25.9973C22.4527 25.7913 22.4771 25.5973 22.5137 25.4034H22.5746C23.9283 25.4034 25.0259 24.3367 25.0746 23.0034C25.2088 22.9792 25.3551 22.967 25.5015 22.967Z" fill="white"/>
</svg>
