<svg width="52" height="52" viewBox="0 0 52 52" fill="none" xmlns="http://www.w3.org/2000/svg">
<rect width="52" height="52" rx="10" fill="#E1738E"/>
<path d="M21.5 22V31.5H20.5V22C20.5 21.6022 20.658 21.2206 20.9393 20.9393C21.2206 20.658 21.6022 20.5 22 20.5H31.5V21.5H22H21.5V22ZM18 17.5H17.5V18V27.5H16.5V18C16.5 17.6022 16.658 17.2206 16.9393 16.9393C17.2206 16.658 17.6022 16.5 18 16.5H27.5V17.5H18ZM34.5 29V28.5H34H31.5V26V25.5H31H29H28.5V26V28.5H26H25.5V29V31V31.5H26H28.5V34V34.5H29H31H31.5V34V31.5H34H34.5V31V29ZM35.5 26V34C35.5 34.3978 35.342 34.7794 35.0607 35.0607C34.7794 35.342 34.3978 35.5 34 35.5H26C25.6022 35.5 25.2206 35.342 24.9393 35.0607C24.658 34.7794 24.5 34.3978 24.5 34V26C24.5 25.6022 24.658 25.2206 24.9393 24.9393C25.2206 24.658 25.6022 24.5 26 24.5H34C34.3978 24.5 34.7794 24.658 35.0607 24.9393C35.342 25.2206 35.5 25.6022 35.5 26Z" fill="white" stroke="white"/>
</svg>
