<svg width="52" height="52" viewBox="0 0 52 52" fill="none" xmlns="http://www.w3.org/2000/svg">
<rect width="52" height="52" rx="10" fill="#E34A4A"/>
<path d="M27.5 32.25C27.5 31.8989 27.3819 31.573 27.1187 31.3239C26.8526 31.0719 26.5164 30.9752 26.1635 31.0013C25.601 31.0425 24.9728 30.891 24.2676 30.4998C23.6689 30.1677 23.249 29.5517 23.0672 28.5368L23.0669 28.5356C23.0129 28.2382 22.8653 27.9826 22.6313 27.7894C22.4 27.5985 22.1247 27.5 21.825 27.5C21.4474 27.5 21.1163 27.6502 20.8701 27.938C20.6166 28.2342 20.5307 28.5959 20.6096 28.9728C20.9126 30.5878 21.6401 31.8093 22.8368 32.5501C23.9608 33.2459 25.1207 33.5731 26.3062 33.499L26.3062 33.4991L26.3165 33.4983C26.6345 33.4718 26.916 33.3411 27.1416 33.1156C27.3765 32.8806 27.5007 32.583 27.5 32.25ZM27.5 32.25H27M27.5 32.25C27.5 32.2494 27.5 32.2489 27.5 32.2483L27 32.25M27 32.25C27.0007 32.4493 26.93 32.62 26.788 32.762C26.646 32.904 26.475 32.9833 26.275 33L22.575 28.625C22.775 29.741 23.2583 30.5117 24.025 30.937C24.7917 31.3623 25.5167 31.55 26.2 31.5C26.4333 31.4827 26.625 31.545 26.775 31.687C26.925 31.829 27 32.0167 27 32.25ZM18.5 27.8001V27.8C18.5 26.267 19.1102 24.5514 20.4021 22.6422C21.6401 20.8127 23.5005 18.8178 26 16.6586C28.5001 18.8185 30.3609 20.8136 31.5989 22.6432C32.8908 24.5524 33.5006 26.2676 33.5 27.7998V27.8C33.5 30.0127 32.7817 31.8346 31.3538 33.3012C29.9271 34.7665 28.1544 35.5 26 35.5C23.8449 35.5 22.0719 34.7665 20.6452 33.3012C19.2174 31.8346 18.4994 30.0128 18.5 27.8001Z" fill="white" stroke="white"/>
</svg>
