<svg width="52" height="52" viewBox="0 0 52 52" fill="none" xmlns="http://www.w3.org/2000/svg">
<rect width="52" height="52" rx="10" fill="#7596E9"/>
<path d="M26.7355 32.8213L26.7363 32.8222C26.902 33.0086 27 33.2427 27 33.5C27 34.0539 26.5539 34.5 26 34.5C23.7457 34.5 21.5837 33.6045 19.9896 32.0104C18.3955 30.4163 17.5 28.2543 17.5 26C17.5 23.7457 18.3955 21.5837 19.9896 19.9896C21.5837 18.3955 23.7457 17.5 26 17.5C30.7509 17.5 34.5 20.91 34.5 25C34.5 27.4839 32.4839 29.5 30 29.5H28.23C27.1239 29.5 26.23 30.3939 26.23 31.5C26.23 32.0122 26.4316 32.4778 26.7355 32.8213ZM18.5 24.5C18.5 25.6061 19.3939 26.5 20.5 26.5C21.6061 26.5 22.5 25.6061 22.5 24.5C22.5 23.3939 21.6061 22.5 20.5 22.5C19.3939 22.5 18.5 23.3939 18.5 24.5ZM21.5 20.5C21.5 21.6061 22.3939 22.5 23.5 22.5C24.6061 22.5 25.5 21.6061 25.5 20.5C25.5 19.3939 24.6061 18.5 23.5 18.5C22.3939 18.5 21.5 19.3939 21.5 20.5ZM26.5 20.5C26.5 21.6061 27.3939 22.5 28.5 22.5C29.6061 22.5 30.5 21.6061 30.5 20.5C30.5 19.3939 29.6061 18.5 28.5 18.5C27.3939 18.5 26.5 19.3939 26.5 20.5ZM29.5 24.5C29.5 25.6061 30.3939 26.5 31.5 26.5C32.6061 26.5 33.5 25.6061 33.5 24.5C33.5 23.3939 32.6061 22.5 31.5 22.5C30.3939 22.5 29.5 23.3939 29.5 24.5Z" fill="white" stroke="white"/>
</svg>
