<svg width="52" height="52" viewBox="0 0 52 52" fill="none" xmlns="http://www.w3.org/2000/svg">
<rect width="52" height="52" rx="10" fill="#79BF60"/>
<path d="M24 20.5H23.5V21V23V23.5H24H25.5V31V31.5H26H28H28.5V31V21V20.5H28H24ZM26 16.5C27.2476 16.5 28.4829 16.7457 29.6355 17.2231C30.7881 17.7006 31.8354 18.4003 32.7175 19.2825C33.5997 20.1646 34.2994 21.2119 34.7769 22.3645C35.2543 23.5171 35.5 24.7524 35.5 26C35.5 28.5196 34.4991 30.9359 32.7175 32.7175C30.9359 34.4991 28.5196 35.5 26 35.5C24.7524 35.5 23.5171 35.2543 22.3645 34.7769C21.2119 34.2994 20.1646 33.5997 19.2825 32.7175C17.5009 30.9359 16.5 28.5196 16.5 26C16.5 23.4804 17.5009 21.0641 19.2825 19.2825C21.0641 17.5009 23.4804 16.5 26 16.5Z" fill="white" stroke="white"/>
</svg>
