<svg width="52" height="52" viewBox="0 0 52 52" fill="none" xmlns="http://www.w3.org/2000/svg">
<rect width="52" height="52" rx="10" fill="#F77E58"/>
<mask id="path-2-inside-1_1_645" fill="white">
<path d="M26.2488 19.9282V19.9566C26.2492 20.5124 26.153 21.0642 25.9645 21.5875L25.9756 21.5536C25.7924 22.0636 25.4811 22.5186 25.0712 22.8756L25.0675 22.8783C24.679 23.2258 24.1622 23.4375 23.5956 23.4375H23.5513H23.5531C22.8055 23.4333 22.0896 23.1373 21.5597 22.6134C20.9809 22.0855 20.5305 21.4338 20.2428 20.7074L20.2308 20.6726C19.9519 19.9862 19.8051 19.2539 19.798 18.5137V18.4816C19.798 17.9095 19.8986 17.3604 20.0822 16.8507L20.0711 16.8846C20.2544 16.3746 20.5657 15.9196 20.9755 15.5626L20.9792 15.5599C21.3963 15.1871 21.9411 14.987 22.502 15.0007H22.4992C23.247 15.0038 23.9633 15.3 24.4926 15.8248C25.0657 16.3526 25.5122 17.0014 25.7993 17.7234L25.8113 17.7582C26.0781 18.4 26.2359 19.1453 26.2442 19.9255V19.9282H26.2488ZM21.3161 26.8479L21.317 26.9249C21.3181 27.6142 21.1037 28.287 20.7033 28.85L20.7107 28.839C20.5281 29.1003 20.2846 29.3138 20.001 29.4613C19.7173 29.6088 19.402 29.6859 19.0818 29.6861L18.9905 29.6843H18.9951C18.2386 29.676 17.5116 29.3922 16.9519 28.8867L16.9546 28.8895C16.3592 28.3828 15.8775 27.7575 15.541 27.0541C15.2044 26.3507 15.0204 25.5848 15.0009 24.8062V24.7989L15 24.7237C15 24.0041 15.227 23.3367 15.6137 22.7894L15.6063 22.8004C15.7963 22.5246 16.054 22.3015 16.355 22.1523C16.6561 22.0031 16.9905 21.9327 17.3265 21.9478H17.3219C18.0784 21.9561 18.8054 22.2399 19.3651 22.7454L19.3624 22.7426C19.9588 23.2523 20.4408 23.8806 20.7773 24.587C21.1139 25.2933 21.2974 26.062 21.3161 26.8433V26.8497V26.8479ZM27.0018 26.461C28.3492 26.534 29.6396 27.0249 30.6914 27.8645L30.6785 27.8544C31.9661 28.7628 33.0755 29.8975 33.9519 31.2024L33.9815 31.2492C34.7714 32.3035 35.2331 33.5647 35.3095 34.8768L35.3104 34.8951L35.3122 34.9749C35.3122 35.3452 35.2209 35.6954 35.0594 36.0026L35.0649 35.9906C34.9099 36.2723 34.6679 36.4969 34.3746 36.6314L34.3654 36.6351C34.0968 36.7625 33.784 36.8625 33.4573 36.9184L33.4351 36.9211C33.0945 36.9745 32.7501 37.0009 32.4052 37H32.336H32.3397C31.3888 36.9374 30.4559 36.7123 29.5822 36.3344L29.6357 36.3555C28.8105 35.9981 27.9308 35.7808 27.0332 35.7129L27.0046 35.711C25.9867 35.7862 25.0435 36.0136 24.1668 36.3702L24.2286 36.3482C23.3144 36.7129 22.3467 36.9278 21.3631 36.9844L21.3373 36.9853C19.574 36.9865 18.6924 36.2901 18.6924 34.896C18.7323 33.9192 19.0152 32.9674 19.5156 32.1256L19.4999 32.1531C20.0398 31.1444 20.7181 30.2151 21.5154 29.3918L21.5117 29.3955C22.291 28.587 23.1822 27.8927 24.1585 27.3337L24.2157 27.3035C25.0495 26.7867 26.005 26.4956 26.9871 26.4592H26.9981L27.0018 26.461ZM30.4487 23.4384H30.4063C29.8621 23.439 29.3369 23.2391 28.9325 22.8774L28.9343 22.8792C28.5277 22.5276 28.2177 22.079 28.0336 21.5756L28.0262 21.5536C27.8431 21.0409 27.7504 20.5006 27.7521 19.9566V19.9264V19.9282C27.7604 19.1444 27.9182 18.4 28.1997 17.7179L28.185 17.7582C28.4709 17.0241 28.9209 16.3639 29.501 15.8276L29.5046 15.8248C30.034 15.3009 30.7498 15.0051 31.4971 15.0016H31.5405C32.1071 15.0016 32.6239 15.2143 33.0143 15.5626L33.0124 15.5608C33.4167 15.9119 33.7286 16.3574 33.9132 16.8644L33.9205 16.8864C34.0968 17.365 34.1983 17.9178 34.1983 18.4935V18.5118V18.5109C34.1903 19.2667 34.0385 20.0142 33.7507 20.7139L33.7655 20.6735C33.4793 21.4117 33.0259 22.0745 32.4403 22.6106L32.4366 22.6143C31.9064 23.1369 31.191 23.4318 30.4441 23.4357H30.4432L30.4487 23.4384ZM36.6781 21.9496L36.763 21.9478C37.4376 21.9478 38.0328 22.2833 38.3891 22.7958L38.3937 22.8022C38.7901 23.3665 39.0019 24.0384 39 24.7265L38.9991 24.8053V24.8017C38.9809 25.5798 38.7982 26.3454 38.4629 27.0488C38.1276 27.7523 37.6472 28.3778 37.0527 28.8849L37.0454 28.8913C36.4865 29.3949 35.7613 29.6777 35.0068 29.6861H35.0049C34.6716 29.701 34.34 29.6319 34.0409 29.4852C33.7417 29.3386 33.4848 29.1191 33.2939 28.8473L33.2893 28.8409C32.877 28.2578 32.6648 27.5583 32.6839 26.846V26.8497C32.7016 26.0688 32.8839 25.3003 33.2192 24.5939C33.5544 23.8874 34.0351 23.2586 34.6302 22.7481L34.6376 22.7417C35.1958 22.2397 35.9196 21.9577 36.6725 21.9487H36.6744L36.6781 21.9496Z"/>
</mask>
<path d="M26.2488 19.9282V19.9566C26.2492 20.5124 26.153 21.0642 25.9645 21.5875L25.9756 21.5536C25.7924 22.0636 25.4811 22.5186 25.0712 22.8756L25.0675 22.8783C24.679 23.2258 24.1622 23.4375 23.5956 23.4375H23.5513H23.5531C22.8055 23.4333 22.0896 23.1373 21.5597 22.6134C20.9809 22.0855 20.5305 21.4338 20.2428 20.7074L20.2308 20.6726C19.9519 19.9862 19.8051 19.2539 19.798 18.5137V18.4816C19.798 17.9095 19.8986 17.3604 20.0822 16.8507L20.0711 16.8846C20.2544 16.3746 20.5657 15.9196 20.9755 15.5626L20.9792 15.5599C21.3963 15.1871 21.9411 14.987 22.502 15.0007H22.4992C23.247 15.0038 23.9633 15.3 24.4926 15.8248C25.0657 16.3526 25.5122 17.0014 25.7993 17.7234L25.8113 17.7582C26.0781 18.4 26.2359 19.1453 26.2442 19.9255V19.9282H26.2488ZM21.3161 26.8479L21.317 26.9249C21.3181 27.6142 21.1037 28.287 20.7033 28.85L20.7107 28.839C20.5281 29.1003 20.2846 29.3138 20.001 29.4613C19.7173 29.6088 19.402 29.6859 19.0818 29.6861L18.9905 29.6843H18.9951C18.2386 29.676 17.5116 29.3922 16.9519 28.8867L16.9546 28.8895C16.3592 28.3828 15.8775 27.7575 15.541 27.0541C15.2044 26.3507 15.0204 25.5848 15.0009 24.8062V24.7989L15 24.7237C15 24.0041 15.227 23.3367 15.6137 22.7894L15.6063 22.8004C15.7963 22.5246 16.054 22.3015 16.355 22.1523C16.6561 22.0031 16.9905 21.9327 17.3265 21.9478H17.3219C18.0784 21.9561 18.8054 22.2399 19.3651 22.7454L19.3624 22.7426C19.9588 23.2523 20.4408 23.8806 20.7773 24.587C21.1139 25.2933 21.2974 26.062 21.3161 26.8433V26.8497V26.8479ZM27.0018 26.461C28.3492 26.534 29.6396 27.0249 30.6914 27.8645L30.6785 27.8544C31.9661 28.7628 33.0755 29.8975 33.9519 31.2024L33.9815 31.2492C34.7714 32.3035 35.2331 33.5647 35.3095 34.8768L35.3104 34.8951L35.3122 34.9749C35.3122 35.3452 35.2209 35.6954 35.0594 36.0026L35.0649 35.9906C34.9099 36.2723 34.6679 36.4969 34.3746 36.6314L34.3654 36.6351C34.0968 36.7625 33.784 36.8625 33.4573 36.9184L33.4351 36.9211C33.0945 36.9745 32.7501 37.0009 32.4052 37H32.336H32.3397C31.3888 36.9374 30.4559 36.7123 29.5822 36.3344L29.6357 36.3555C28.8105 35.9981 27.9308 35.7808 27.0332 35.7129L27.0046 35.711C25.9867 35.7862 25.0435 36.0136 24.1668 36.3702L24.2286 36.3482C23.3144 36.7129 22.3467 36.9278 21.3631 36.9844L21.3373 36.9853C19.574 36.9865 18.6924 36.2901 18.6924 34.896C18.7323 33.9192 19.0152 32.9674 19.5156 32.1256L19.4999 32.1531C20.0398 31.1444 20.7181 30.2151 21.5154 29.3918L21.5117 29.3955C22.291 28.587 23.1822 27.8927 24.1585 27.3337L24.2157 27.3035C25.0495 26.7867 26.005 26.4956 26.9871 26.4592H26.9981L27.0018 26.461ZM30.4487 23.4384H30.4063C29.8621 23.439 29.3369 23.2391 28.9325 22.8774L28.9343 22.8792C28.5277 22.5276 28.2177 22.079 28.0336 21.5756L28.0262 21.5536C27.8431 21.0409 27.7504 20.5006 27.7521 19.9566V19.9264V19.9282C27.7604 19.1444 27.9182 18.4 28.1997 17.7179L28.185 17.7582C28.4709 17.0241 28.9209 16.3639 29.501 15.8276L29.5046 15.8248C30.034 15.3009 30.7498 15.0051 31.4971 15.0016H31.5405C32.1071 15.0016 32.6239 15.2143 33.0143 15.5626L33.0124 15.5608C33.4167 15.9119 33.7286 16.3574 33.9132 16.8644L33.9205 16.8864C34.0968 17.365 34.1983 17.9178 34.1983 18.4935V18.5118V18.5109C34.1903 19.2667 34.0385 20.0142 33.7507 20.7139L33.7655 20.6735C33.4793 21.4117 33.0259 22.0745 32.4403 22.6106L32.4366 22.6143C31.9064 23.1369 31.191 23.4318 30.4441 23.4357H30.4432L30.4487 23.4384ZM36.6781 21.9496L36.763 21.9478C37.4376 21.9478 38.0328 22.2833 38.3891 22.7958L38.3937 22.8022C38.7901 23.3665 39.0019 24.0384 39 24.7265L38.9991 24.8053V24.8017C38.9809 25.5798 38.7982 26.3454 38.4629 27.0488C38.1276 27.7523 37.6472 28.3778 37.0527 28.8849L37.0454 28.8913C36.4865 29.3949 35.7613 29.6777 35.0068 29.6861H35.0049C34.6716 29.701 34.34 29.6319 34.0409 29.4852C33.7417 29.3386 33.4848 29.1191 33.2939 28.8473L33.2893 28.8409C32.877 28.2578 32.6648 27.5583 32.6839 26.846V26.8497C32.7016 26.0688 32.8839 25.3003 33.2192 24.5939C33.5544 23.8874 34.0351 23.2586 34.6302 22.7481L34.6376 22.7417C35.1958 22.2397 35.9196 21.9577 36.6725 21.9487H36.6744L36.6781 21.9496Z" fill="white" stroke="white" stroke-width="2" mask="url(#path-2-inside-1_1_645)"/>
</svg>
