<svg width="52" height="52" viewBox="0 0 52 52" fill="none" xmlns="http://www.w3.org/2000/svg">
<rect width="52" height="52" rx="10" fill="#9179D5"/>
<mask id="path-2-inside-1_1_661" fill="white">
<path d="M27 27H25V21H27M27 31H25V29H27M26 16C24.6868 16 23.3864 16.2587 22.1732 16.7612C20.9599 17.2638 19.8575 18.0003 18.9289 18.9289C17.0536 20.8043 16 23.3478 16 26C16 28.6522 17.0536 31.1957 18.9289 33.0711C19.8575 33.9997 20.9599 34.7362 22.1732 35.2388C23.3864 35.7413 24.6868 36 26 36C28.6522 36 31.1957 34.9464 33.0711 33.0711C34.9464 31.1957 36 28.6522 36 26C36 24.6868 35.7413 23.3864 35.2388 22.1732C34.7362 20.9599 33.9997 19.8575 33.0711 18.9289C32.1425 18.0003 31.0401 17.2638 29.8268 16.7612C28.6136 16.2587 27.3132 16 26 16Z"/>
</mask>
<path d="M27 27H25V21H27M27 31H25V29H27M26 16C24.6868 16 23.3864 16.2587 22.1732 16.7612C20.9599 17.2638 19.8575 18.0003 18.9289 18.9289C17.0536 20.8043 16 23.3478 16 26C16 28.6522 17.0536 31.1957 18.9289 33.0711C19.8575 33.9997 20.9599 34.7362 22.1732 35.2388C23.3864 35.7413 24.6868 36 26 36C28.6522 36 31.1957 34.9464 33.0711 33.0711C34.9464 31.1957 36 28.6522 36 26C36 24.6868 35.7413 23.3864 35.2388 22.1732C34.7362 20.9599 33.9997 19.8575 33.0711 18.9289C32.1425 18.0003 31.0401 17.2638 29.8268 16.7612C28.6136 16.2587 27.3132 16 26 16Z" fill="white"/>
<path d="M25 27H24V28H25V27ZM25 21V20H24V21H25ZM25 31H24V32H25V31ZM25 29V28H24V29H25ZM16 26H15H16ZM26 36V37V36ZM27 26H25V28H27V26ZM26 27V21H24V27H26ZM25 22H27V20H25V22ZM27 30H25V32H27V30ZM26 31V29H24V31H26ZM25 30H27V28H25V30ZM26 15C24.5555 15 23.1251 15.2845 21.7905 15.8373L22.5558 17.6851C23.6478 17.2328 24.8181 17 26 17V15ZM21.7905 15.8373C20.4559 16.3901 19.2433 17.2004 18.2218 18.2218L19.636 19.636C20.4718 18.8003 21.4639 18.1374 22.5558 17.6851L21.7905 15.8373ZM18.2218 18.2218C16.1589 20.2847 15 23.0826 15 26H17C17 23.6131 17.9482 21.3239 19.636 19.636L18.2218 18.2218ZM15 26C15 28.9174 16.1589 31.7153 18.2218 33.7782L19.636 32.364C17.9482 30.6761 17 28.3869 17 26H15ZM18.2218 33.7782C19.2433 34.7996 20.4559 35.6099 21.7905 36.1627L22.5558 34.3149C21.4639 33.8626 20.4718 33.1997 19.636 32.364L18.2218 33.7782ZM21.7905 36.1627C23.1251 36.7155 24.5555 37 26 37V35C24.8181 35 23.6478 34.7672 22.5558 34.3149L21.7905 36.1627ZM26 37C28.9174 37 31.7153 35.8411 33.7782 33.7782L32.364 32.364C30.6761 34.0518 28.3869 35 26 35V37ZM33.7782 33.7782C35.8411 31.7153 37 28.9174 37 26H35C35 28.3869 34.0518 30.6761 32.364 32.364L33.7782 33.7782ZM37 26C37 24.5555 36.7155 23.1251 36.1627 21.7905L34.3149 22.5558C34.7672 23.6478 35 24.8181 35 26H37ZM36.1627 21.7905C35.6099 20.4559 34.7996 19.2433 33.7782 18.2218L32.364 19.636C33.1997 20.4718 33.8626 21.4639 34.3149 22.5558L36.1627 21.7905ZM33.7782 18.2218C32.7567 17.2004 31.5441 16.3901 30.2095 15.8373L29.4442 17.6851C30.5361 18.1374 31.5282 18.8003 32.364 19.636L33.7782 18.2218ZM30.2095 15.8373C28.8749 15.2845 27.4445 15 26 15V17C27.1819 17 28.3522 17.2328 29.4442 17.6851L30.2095 15.8373Z" fill="white" mask="url(#path-2-inside-1_1_661)"/>
</svg>
