<svg width="52" height="52" viewBox="0 0 52 52" fill="none" xmlns="http://www.w3.org/2000/svg">
<rect width="52" height="52" rx="10" fill="#F0B864"/>
<path d="M29.2341 33.5005H29.234H22.766H22.7659C22.4002 33.5005 22.0471 33.367 21.773 33.1251C21.4988 32.8831 21.3225 32.5493 21.2771 32.1865L21.2771 32.1864L20.547 26.3453L22.23 25.7848L22.2302 25.7848C22.4469 25.7125 22.6773 25.6907 22.9037 25.7209C23.1301 25.7512 23.3466 25.8328 23.5367 25.9595L23.5369 25.9597L24.6137 26.6765C24.6138 26.6766 24.6139 26.6766 24.6139 26.6767C25.0244 26.9502 25.5067 27.0961 26 27.0961C26.4933 27.0961 26.9756 26.9502 27.3861 26.6767C27.3861 26.6766 27.3862 26.6766 27.3863 26.6765L28.4631 25.9597L28.4635 25.9593C28.6536 25.8325 28.8701 25.7508 29.0965 25.7204C29.3229 25.69 29.5533 25.7117 29.77 25.7838L31.453 26.3451L30.7229 32.1864L30.7229 32.1865C30.6775 32.5493 30.5012 32.8831 30.227 33.1251C29.9529 33.367 29.5998 33.5005 29.2341 33.5005Z" fill="white" stroke="white"/>
<path d="M18.5 18H33.5M20 26L20.781 32.248C20.8415 32.7318 21.0766 33.1768 21.4421 33.4995C21.8076 33.8221 22.2784 34.0001 22.766 34H29.234C29.7216 34.0001 30.1924 33.8221 30.5579 33.4995C30.9234 33.1768 31.1585 32.7318 31.219 32.248L32 26M20 26L22.072 25.31C22.3609 25.2136 22.6681 25.1845 22.97 25.2249C23.2719 25.2653 23.5605 25.3741 23.814 25.543L24.891 26.26C25.2195 26.4789 25.6053 26.5956 26 26.5956C26.3947 26.5956 26.7805 26.4789 27.109 26.26L28.186 25.543C28.4394 25.3739 28.728 25.2649 29.0299 25.2244C29.3318 25.1838 29.639 25.2128 29.928 25.309L32 26M20 26L19.062 18.5M32 26L32.938 18.5" stroke="white" stroke-width="2" stroke-linecap="round" stroke-linejoin="round"/>
</svg>
