<svg width="52" height="52" viewBox="0 0 52 52" fill="none" xmlns="http://www.w3.org/2000/svg">
<rect width="52" height="52" rx="10" fill="#DB88E2"/>
<path d="M23.75 36.125C22.6564 36.1236 21.608 35.6886 20.8347 34.9153C20.1503 34.2309 19.7309 33.331 19.6425 32.375H20.3959C20.4805 33.1321 20.8196 33.8426 21.3635 34.3865C21.9964 35.0194 22.8549 35.375 23.75 35.375C24.6451 35.375 25.5036 35.0194 26.1365 34.3865C26.6804 33.8426 27.0195 33.1321 27.1041 32.375H27.8575C27.7691 33.331 27.3497 34.2309 26.6653 34.9153C25.892 35.6886 24.8436 36.1236 23.75 36.125Z" fill="white" stroke="white" stroke-width="0.75"/>
<path d="M18.5729 24.8567C18.2982 24.8746 18.026 24.7959 17.8032 24.6344C17.6763 24.5342 17.5724 24.4077 17.4987 24.2636C17.4241 24.1179 17.3822 23.9576 17.3758 23.7939C17.3695 23.6303 17.399 23.4672 17.4621 23.3161C17.5252 23.165 17.6205 23.0295 17.7414 22.919L17.7423 22.9182L24.6423 16.5687L24.6424 16.5687C25.1268 16.1228 25.761 15.8752 26.4194 15.875C26.4194 15.875 26.4195 15.875 26.4195 15.875H29.7494C30.8434 15.875 31.8926 16.3096 32.6662 17.0832C33.4398 17.8568 33.8744 18.906 33.8744 20V25.25C33.8744 25.5484 33.7559 25.8345 33.5449 26.0455C33.3339 26.2565 33.0478 26.375 32.7494 26.375C32.451 26.375 32.1649 26.2565 31.9539 26.0455C31.7429 25.8345 31.6244 25.5484 31.6244 25.25H31.2494H30.8744V26C30.8744 26.2984 30.7559 26.5845 30.5449 26.7955C30.3339 27.0065 30.0478 27.125 29.7494 27.125C29.451 27.125 29.1649 27.0065 28.9539 26.7955C28.7429 26.5845 28.6244 26.2984 28.6244 26H28.2494H27.8744V26.75C27.8744 27.0484 27.7559 27.3345 27.5449 27.5455C27.3339 27.7565 27.0478 27.875 26.7494 27.875C26.451 27.875 26.1649 27.7565 25.9539 27.5455C25.7429 27.3345 25.6244 27.0484 25.6244 26.75H25.2494H24.8744V32C24.8744 32.2984 24.7559 32.5845 24.5449 32.7955C24.3339 33.0065 24.0478 33.125 23.7494 33.125C23.451 33.125 23.1649 33.0065 22.9539 32.7955C22.7429 32.5845 22.6244 32.2984 22.6244 32V22.3572V21.507L21.9965 22.0803L19.3175 24.5268L19.3175 24.5268L19.3114 24.5325C19.1109 24.724 18.8495 24.8387 18.5729 24.8567Z" fill="white" stroke="white" stroke-width="0.75"/>
</svg>
